# xmcd CD database file
#
# Track frame offsets:
#	150
#	7662
#	12950
#	20037
#	27125
#	34212
#	41300
#	48387
#	54395
#	61482
#	68570
#	75657
#	82745
#	89832
#	97285
#	104372
#	111460
#	118547
#	125635
#	132722
#	139810
#	146897
#	153985
#	161072
#	168160
#	174867
#	181955
#	189042
#	196130
#	203217
#	210305
#	217392
#	224480
#	231567
#	238655
#	245742
#	252830
#	259917
#	267005
#	274092
#	281180
#	288267
#	295355
#	302442
#	309530
#	316767
#	323855
#	330942
#	338030
#	345117
#
# Disc length: 4696 seconds
#
# Revision: 1
# Processed by: cddbd v1.5.1PL2 Copyright (c) Steve Scherf et al.
# Submitted via: CDex 1.51
#
DISCID=e2125632
DTITLE=Various Artist - THE Best 100 JAZZ [CD1]
DYEAR=2005
DGENRE=Jazz
TTITLE0=Bill Evans - Waltz for Debby
TTITLE1=Bill Evans - Autumn Leaves
TTITLE2=Bill Evans - Alice Wonderland
TTITLE3=Bill Evans - Beautiful Love
TTITLE4=Bill Evans - Polka Dots and Moonbeams
TTITLE5=Bill Evans - You and the Night and Music
TTITLE6=Bill Evans - When You Wish Upon a Star
TTITLE7=Sonny Rollins - St. Thomas
TTITLE8=Sonny Rollins - Solitude
TTITLE9=Sonny Rollins and John Coltrane - Tenor Madness
TTITLE10=Sonny Rollins - There's No Business Like Show Business
TTITLE11=Wes Montgomery - Full House
TTITLE12=Wes Montgomery - Four On Six
TTITLE13=Wes Montgomery - Besame Mucho
TTITLE14=Miles Davis - If I Were Bell
TTITLE15=Miles Davis - My Funny Valentine
TTITLE16=Miles Davis - Bags' Groove
TTITLE17=Miles Davis - Walkin'
TTITLE18=Miles Davis - It Never Entered My Mind
TTITLE19=Miles Davis - When I Full In Love
TTITLE20=Miles Davis - Dig
TTITLE21=The Modern Jazz Quartet - Django
TTITLE22=The Modern Jazz Quartet - Softly, as In a Morning Sunrise
TTITLE23=Thelonious Monk - 'Bound Midnight
TTITLE24=Thelonious Monk - Brilliant Corners
TTITLE25=Thelonious Monk - Well, You Needn't
TTITLE26=Thelonious Monk - Blue Monk
TTITLE27=Thelonious Monk - In Walked Bud
TTITLE28=Art Pepper - You'd be so Nice to Come Home to
TTITLE29=John Coltrane - I Want to Talk About You
TTITLE30=Wynton Kelly - On Green Dolphin Street
TTITLE31=Red Garland - C Jam Blues
TTITLE32=Joe Pass - How High the Moon
TTITLE33=Kenny Dorham - Lotus Blossom
TTITLE34=Sarah Vaughan - I didn't know What Time it Was
TTITLE35=Charlie Parker and Dizzy Gillespie - A Night in Tunisia
TTITLE36=Art Tatum and Ben Webster - Gone With the Wind
TTITLE37=Blue Mitchell - I'll Close My Eyes
TTITLE38=Eric Dolphy - Fire Waltz
TTITLE39=Ray Bryant - Golden Earrings
TTITLE40=Don Friedman - Circle Waltz
TTITLE41=Kenny Drew - When You Wish Upon a Star
TTITLE42=Chet Baker With Bill Evans - Alone Together
TTITLE43=Shelly Manne - I Could Have Danced All Night
TTITLE44=Dave Brubeck and Paul Desmond - Look for the Silver Lining
TTITLE45=Hampton Hawes - What is this Thing Called Love
TTITLE46=Stan Getz - I've Got You Under My Skin
TTITLE47=Jackie Mclean - Sentimental Journey
TTITLE48=Cannonball Adderley - This Here
TTITLE49=Cannonball Adderley with Bill Evans - Waltz for Debby
EXTD=YEAR: 2005
EXTT0=
EXTT1=
EXTT2=
EXTT3=
EXTT4=
EXTT5=
EXTT6=
EXTT7=
EXTT8=
EXTT9=
EXTT10=
EXTT11=
EXTT12=
EXTT13=
EXTT14=
EXTT15=
EXTT16=
EXTT17=
EXTT18=
EXTT19=
EXTT20=
EXTT21=
EXTT22=
EXTT23=
EXTT24=
EXTT25=
EXTT26=
EXTT27=
EXTT28=
EXTT29=
EXTT30=
EXTT31=
EXTT32=
EXTT33=
EXTT34=
EXTT35=
EXTT36=
EXTT37=
EXTT38=
EXTT39=
EXTT40=
EXTT41=
EXTT42=
EXTT43=
EXTT44=
EXTT45=
EXTT46=
EXTT47=
EXTT48=
EXTT49=
PLAYORDER=
